<svg xmlns="http://www.w3.org/2000/svg" width="256" height="256" viewBox="0 0 256 256">
  <defs>
    <style>
      .cls-1 {
        fill: #a9c216;
      }

      .cls-1, .cls-2 {
        fill-rule: evenodd;
      }

      .cls-2 {
        fill: #684fa3;
      }
    </style>
  </defs>
  <g id="api">
    <path id="green" class="cls-1" d="M7.812,255.1a13.777,13.777,0,0,1-6.855-7.475c-0.861-2.874-.836-45.855.029-48.781,0.838-2.835,5.113-7.11,7.947-7.947,2.926-.865,45.907-0.89,48.781-0.029a13.775,13.775,0,0,1,7.475,6.855l1.215,2.609V246.26l-1.22,2.581a12.218,12.218,0,0,1-6.511,6.409c-2.224,1.006-3.295,1.051-25.287,1.057l-22.965.006L7.812,255.1h0Zm49.078-8.3,1.267-1.267V201.058l-1.267-1.266-1.267-1.267H11.149l-1.267,1.267-1.267,1.266v44.475L9.882,246.8l1.267,1.267H55.623ZM19.451,235.937l-5.4-5.42L17,227.564l2.953-2.953,2.595,2.556,2.595,2.556L35.973,218.9,46.8,208.082l2.963,2.964,2.963,2.963L39.062,227.683c-7.517,7.521-13.789,13.675-13.938,13.675s-2.7-2.439-5.673-5.421h0Zm103.884-92.011c-4.9-1.751-7.441-4.01-10-8.892-0.993-1.894-1.209-3.091-1.208-6.693,0-3.762.2-4.77,1.4-7.079a17.611,17.611,0,0,1,7.737-7.737c2.309-1.2,3.316-1.4,7.079-1.4s4.769,0.2,7.078,1.4A22.3,22.3,0,0,1,140,116.814a16.647,16.647,0,0,1-.067,23.121c-4.2,4.2-11.266,5.9-16.6,3.991h0Zm8.272-8.032a8.137,8.137,0,0,0,2.471-13.29,7.81,7.81,0,0,0-11.475,0C116.221,128.986,123.263,139.38,131.607,135.894Zm66.115,24.25a13.779,13.779,0,0,1-6.856-7.475c-0.861-2.874-.835-45.855.029-48.781,0.838-2.835,5.113-7.11,7.947-7.947,2.926-.864,45.907-0.89,48.781-0.029a13.778,13.778,0,0,1,7.475,6.855l1.215,2.609v45.93l-1.22,2.58a12.216,12.216,0,0,1-6.511,6.409c-2.224,1.007-3.295,1.051-25.287,1.057l-22.964.006-2.609-1.215h0Zm49.077-8.3,1.267-1.267V106.1l-1.267-1.267-1.266-1.267H201.058l-1.267,1.267-1.267,1.267v44.474l1.267,1.267,1.267,1.267h44.475ZM209.36,140.983l-5.4-5.421,2.953-2.953,2.953-2.953,2.594,2.556,2.595,2.556,10.829-10.82,10.83-10.82,2.963,2.963,2.963,2.963-13.667,13.675c-7.517,7.521-13.789,13.674-13.938,13.674s-2.7-2.439-5.673-5.42h0ZM32.583,65.189a13.776,13.776,0,0,1-6.855-7.475c-0.861-2.874-.836-45.855.029-48.781C26.594,6.1,30.869,1.824,33.7.986,36.63,0.122,79.611.1,82.484,0.957a13.776,13.776,0,0,1,7.475,6.855l1.215,2.609V56.351l-1.22,2.58a12.216,12.216,0,0,1-6.511,6.409c-2.224,1.007-3.295,1.051-25.287,1.058L35.192,66.4l-2.609-1.215h0Zm49.078-8.3,1.267-1.267V11.149L81.661,9.882,80.394,8.615H35.919L34.653,9.882l-1.267,1.267V55.624l1.267,1.267,1.267,1.267H80.394ZM44.221,46.028l-5.4-5.42,2.953-2.953L44.725,34.7l2.595,2.556,2.595,2.556,10.829-10.82,10.829-10.82,2.963,2.963L77.5,24.1,63.833,37.774c-7.517,7.521-13.789,13.675-13.938,13.675s-2.7-2.439-5.673-5.42h0Z"/>
    <path id="purple" class="cls-2" d="M116.987,239.27a135.942,135.942,0,0,1-19.61-3.872C92.3,233.94,81.9,229.943,81.9,229.45a35.259,35.259,0,0,1,1.574-3.806c0.951-2.1,1.819-3.37,2.193-3.215,14.354,5.923,24.984,8.392,38.55,8.955,34.093,1.413,65.738-13.792,86.642-41.63,2.024-2.695,3.475-4.969,3.224-5.053s-5.477,1.108-11.614,2.647l-11.157,2.8-0.553-2.132c-0.3-1.173-.764-2.932-1.022-3.91a6.732,6.732,0,0,1-.343-1.9c0.186-.187,37.224-9.432,37.33-9.319,0.157,0.169,4.751,37.248,4.629,37.37a57.8,57.8,0,0,1-7.848,1.035c-0.086-.087-0.725-4.635-1.419-10.107s-1.364-10.05-1.487-10.174-1.826,1.922-3.785,4.545A112.427,112.427,0,0,1,157.1,235.963c-11.512,3.111-28.789,4.535-40.11,3.307h0Zm-86.2-58.736c-2.968-1.641-10.546-5.822-16.84-9.291L2.5,164.936l1.986-3.461c1.092-1.9,2.178-3.418,2.413-3.367s4.239,2.2,8.9,4.775,8.552,4.6,8.651,4.5a16.244,16.244,0,0,0-1.1-3.591c-7.664-20.362-8.388-44.61-1.991-66.673,1.367-4.716,5.121-14.613,5.838-15.392,0.3-.327,6.2,2.174,7.152,3.034a38.281,38.281,0,0,1-1.9,5.487C25.112,109,23.289,128.6,27.155,147.12c1.481,7.092,5.715,19.8,5.715,17.157,0-.462,4.695-20.145,4.842-20.3a63.067,63.067,0,0,1,7.759,2c0.185,0.254-8.688,36.947-9.011,37.265-0.154.152-2.709-1.067-5.677-2.708h0Zm80.995-2.2c-1.633-4.84-2.382-5.19-6.567-3.078a18.682,18.682,0,0,1-3.824,1.6c-0.366,0-5.391-4.73-11.167-10.512-11.666-11.676-11-10.459-8.468-15.5,1.758-3.5,1.263-4.364-3.4-5.939l-3.678-1.241V113.021l3.678-1.242c4.666-1.575,5.161-2.441,3.4-5.938-2.533-5.039-3.2-3.821,8.468-15.5,5.776-5.781,10.8-10.511,11.167-10.511a18.7,18.7,0,0,1,3.824,1.6c4.185,2.113,4.934,1.762,6.567-3.077l1.242-3.678h30.641l1.242,3.678c1.626,4.817,2.307,5.129,6.676,3.062a24.126,24.126,0,0,1,3.859-1.58c0.287,0,5.247,4.73,11.023,10.511,11.666,11.677,11,10.459,8.468,15.5-1.758,3.5-1.262,4.363,3.4,5.938l3.679,1.242v30.641l-3.679,1.241c-4.817,1.626-5.129,2.308-3.062,6.677a24.147,24.147,0,0,1,1.58,3.859c0,0.286-4.751,5.267-10.558,11.069l-10.557,10.548-3.85-1.692c-4.8-2.111-5.33-1.886-6.982,2.986l-1.242,3.661H113.02Zm27.05-7.341,0.87-2.762L144,166.435l4.305-1.8,2.767,1.221,2.768,1.221,6.619-6.619,6.619-6.619-1.213-2.749-1.214-2.749,1.677-4.2,1.677-4.2,2.872-1.021,2.873-1.022V118.724l-2.762-.87-2.762-.871-1.8-4.305-1.795-4.3,1.221-2.767,1.222-2.768-6.619-6.619L153.844,89.6l-2.75,1.213-2.749,1.213-4.2-1.677-4.2-1.677L138.93,85.8l-1.021-2.873H118.724l-0.871,2.762-0.87,2.762-4.273,1.782-4.274,1.782-2.786-1.221-2.786-1.221-6.633,6.632L89.6,102.838l1.213,2.749,1.213,2.75-1.677,4.2-1.677,4.2L85.8,117.752l-2.873,1.021v19.185l2.762,0.87,2.762,0.871,1.782,4.273,1.782,4.273-1.221,2.787-1.221,2.786,6.632,6.632,6.633,6.632,2.749-1.213,2.749-1.213,4.2,1.677,4.2,1.676,1.022,2.873,1.022,2.872h19.184Zm-16.164-10.109a33.027,33.027,0,0,1-17.524-9.341,32.512,32.512,0,0,1-8.167-12.965c-1.2-3.329-1.363-4.562-1.363-10.236s0.164-6.907,1.363-10.236a34.6,34.6,0,0,1,21.132-21.132c3.329-1.2,4.562-1.363,10.236-1.363s6.906,0.164,10.235,1.363a32.508,32.508,0,0,1,12.965,8.166c20.212,20.212,6.837,54.786-21.652,55.974a43.211,43.211,0,0,1-7.225-.231h0Zm11.59-8.561a25.2,25.2,0,0,0,18.088-18.146c3.342-12.833-4.872-26.373-18.088-29.816-12.914-3.363-26.442,4.813-29.894,18.068-4.6,17.659,12.235,34.493,29.894,29.894h0Zm82.877-76.571a104.8,104.8,0,0,0-37.3-36.863,103.555,103.555,0,0,0-52.113-13.759H121.38l6.577,4.392a72.776,72.776,0,0,1,6.576,4.673c0,0.516-4.162,6.416-4.525,6.416C129.52,40.611,100.5,21.325,100.5,21s29.021-19.61,29.509-19.61c0.363,0,4.525,5.9,4.525,6.416a72.751,72.751,0,0,1-6.576,4.673l-6.577,4.392,6.19,0.01c35.763,0.052,68.627,16.3,89.72,44.355,3.574,4.753,9.624,14.389,9.611,15.308-0.005.471-5.772,3.8-6.581,3.8-0.258,0-1.692-2.068-3.189-4.6h0Z"/>
  </g>
</svg>
