<?xml version="1.0" encoding="utf-8"?>
<!-- Generator: Adobe Illustrator 26.0.1, SVG Export Plug-In . SVG Version: 6.00 Build 0)  -->
<svg version="1.1" id="pesepay-logo" xmlns="http://www.w3.org/2000/svg" xmlns:xlink="http://www.w3.org/1999/xlink" x="0px"
	 y="0px" viewBox="0 0 166 45" style="enable-background:new 0 0 166 45;" xml:space="preserve">
<style type="text/css">
	.st0{fill-rule:evenodd;clip-rule:evenodd;fill:#A9C216;}
	.st1{fill-rule:evenodd;clip-rule:evenodd;fill:#FFFFFF;}
</style>
<path id="swish" class="st0" d="M96,44.3l0.2-0.1l17.5-2.2l17.5-2.2l0.1,0.1l0.1,0.1l-0.8,2.1l-0.8,2.1l-4.7,0.1l-4.7,0.1l-12.2,0
	l-12.2,0L96,44.3L96,44.3L96,44.3z"/>
<path id="lettering" class="st1" d="M136.4,44.8l-0.9-0.2l-0.8-0.2l-0.8-0.2l0.1-0.9l0.1-0.9l0.4-0.8l0.4-0.8l0.5-0.5l0.5-0.5
	l0.8-0.4l0.8-0.4l1.5-0.2l1.5-0.2l1-0.5l1-0.5l0.8-0.8l0.8-0.8l0.5-0.7l0.5-0.7l-0.4-1.5l-0.4-1.5l-0.6-3l-0.6-3l-0.3-1.9l-0.3-1.9
	l-0.3-2.3l-0.3-2.3l-0.2-2.2l-0.2-2.2l0,0.2l0,0.2l-1.3,5.6l-1.3,5.6l-0.2,1.4l-0.2,1.4l0.1,1.3l0.1,1.3l0.2,1.3l0.2,1.3l0.3,0.9
	l0.3,0.9l0,0l0,0l-2.9,0.4l-2.9,0.4l-0.3,0.1l-0.3,0.1l-0.5-1.2l-0.5-1.2l-0.8,0.6l-0.8,0.6l-1,0.5l-0.9,0.5l-0.9,0.2l-0.9,0.2H125
	h-1.5l-1-0.2l-1-0.2l-1-0.5l-1-0.5l-1-0.9l-0.9-0.9l-0.5-1l-0.5-1l-0.3-1.2l-0.3-1.2l-0.1-1.5l-0.1-1.5l-0.5,1.2l-0.5,1.2l-0.7,1.1
	l-0.7,1.1l-0.8,0.9l-0.8,0.9l-0.7,0.6l-0.7,0.6l-1.1,0.7l-1.1,0.7l-1.1,0.5l-1.1,0.5l-1.4,0.4l-1.4,0.4l-2.6,0l-2.6,0l-0.4-0.1
	L97.2,35l-0.9,3.5l-0.9,3.5L95,42.5l-0.4,0.6l-0.8,0.4L93,43.9h-5.4l0.1-0.4l0.1-0.4l4-16.6l4-16.6l0.8-0.2l0.8-0.2l1.9-0.4l1.9-0.4
	l2-0.2l2-0.2l1.4,0.1l1.4,0.1l1.2,0.3l1.2,0.3l1,0.5l1,0.5l1,1l1,1l0.5,0.9l0.5,0.9l0.3,1.1l0.3,1.1l0.1,1.7l0.1,1.7l0.3-0.8
	l0.3-0.8l0.7-1.3l0.7-1.3l1.1-1.3l1.1-1.3l1.3-1l1.3-1l1.3-0.7l1.3-0.7l1.3-0.4l1.3-0.4l1.7-0.2l1.7-0.2l2.3,0.2l2.3,0.2L138,9
	l1.5,0.3l1.1,0.4l1.1,0.4h2.2h2.2l0.6,0.3l0.6,0.3l0.6,0.6l0.6,0.6l0.2,0.8l0.2,0.8V15l0.3,3.7l0.3,3.7l0.3,2.4l0.3,2.4l0.1,0.1
	l0.1,0.1l0.6-0.9l0.6-0.9l1.1-2.1l1.1-2.1l1.1-2.6l1.1-2.6l0.6-1.8l0.6-1.8l0.3-0.7l0.3-0.7l0.6-0.4l0.6-0.4l0.7-0.2l0.7-0.2l2.7,0
	l2.7,0l-0.8,2.1l-0.8,2.1l-1,2.4l-1,2.4l-1.7,3.3l-1.7,3.3l-1.5,2.4l-1.5,2.4l-1.1,1.6l-1.1,1.6l-1.7,2.4l-1.7,2.4l-1,1.2l-1,1.2
	l-1.3,1l-1.3,1l-1.4,0.7l-1.4,0.7l-0.9,0.2l-1,0.2l-1.7,0.1l-1.7,0.1L136.4,44.8L136.4,44.8L136.4,44.8z M102.4,29.1l1.1-0.2
	l0.9-0.4l0.9-0.4l1.1-1.1l1.1-1.1l0.5-1l0.5-1l0.3-1l0.3-1l0-1.9l0-1.9l-0.3-0.8l-0.3-0.8l-0.5-0.6l-0.5-0.6l-0.7-0.3l-0.7-0.3
	l-1.6,0l-1.6,0l-0.5,0.1l-0.5,0.1l-1.6,6.6L98.7,28l-0.1,0.6l-0.1,0.6l0.4,0.1l0.4,0.1l1,0l0.9,0L102.4,29.1L102.4,29.1L102.4,29.1z
	 M128.5,29.1l0.7-0.2l0.8-0.6l0.8-0.6l0.1-0.3l0.1-0.3l0.3-1.9l0.3-1.9l1.1-4.3l1.1-4.3l-0.5-0.1l-0.5-0.1h-2.5l-1,0.3l-1,0.3
	l-1,0.7l-1,0.7l-0.6,0.7l-0.6,0.7l-0.4,0.7l-0.4,0.7l-0.4,1.2l-0.4,1.2l-0.2,1.3l-0.2,1.3l0.2,1.2l0.2,1.2l0.2,0.5l0.2,0.5l0.4,0.5
	l0.4,0.5l0.7,0.3l0.7,0.3h1h1L128.5,29.1L128.5,29.1L128.5,29.1z M35.9,34.9l-1-0.2l-0.8-0.3L33.3,34l-0.9-0.6l-0.9-0.6l-0.8-0.8
	l-0.8-0.8l-0.6-1.3l-0.6-1.3l-0.3-1.3l-0.3-1.2l0-2l0-2l0.3-1.3l0.3-1.3l0.4-1.1l0.4-1.1l0.5-0.9l0.5-0.9l0.6-0.9l0.6-0.9l1-1l1-1
	l0.9-0.7l0.9-0.7l1.2-0.6l1.2-0.6l0.9-0.3l0.9-0.3l1.2-0.2L42,8h3.1L46,8.2l0.8,0.2L48,8.9l1.2,0.6l0.8,0.8l0.8,0.8l0.4,0.9l0.4,0.9
	l0.2,0.8l0.2,0.8v0.9v0.9l-0.2,1.1l-0.2,1.1l-0.4,0.9l-0.4,0.9l-1.2,1.2l-1.2,1.2l-1.5,0.7L45.3,24l-1.5,0.4l-1.5,0.4L40.4,25
	l-1.9,0.2h-3v0.6l0.3,0.8l0.3,0.8l0.6,0.6l0.6,0.6l0.9,0.3l0.9,0.3l1.7,0l1.7,0l1.4-0.3l1.4-0.2l0.7-0.2l0.7-0.2l0.1,0.1l0,0.1
	l-0.7,3.1l-0.7,3.1l-0.3,0.1l-0.3,0.1l-1.5,0.3l-1.5,0.3l-2.5,0l-2.5,0L35.9,34.9L35.9,34.9L35.9,34.9z M38.8,20.1L40,20l1.2-0.3
	l1.2-0.3l0.7-0.3l0.7-0.3l0.5-0.4l0.5-0.4l0.2-0.5l0.2-0.5v-1.7l-0.3-0.4l-0.3-0.4l-0.5-0.3l-0.5-0.3h-2.1l-0.8,0.3l-0.8,0.3
	L39,14.9l-0.8,0.5l-0.6,0.6l-0.6,0.6L36.5,18l-0.6,1.3l-0.1,0.5l-0.1,0.5l1,0l1,0L38.8,20.1L38.8,20.1L38.8,20.1z M53.6,34.9
	l-1.2-0.2l-1.1-0.3L50.2,34l-0.4-0.2l-0.4-0.2L50,31l0.6-2.6l0.1-0.2l0.1-0.2l1,0.3l1,0.3l1.8,0.3l1.8,0.3l1.9-0.1l1.9-0.1l0.5-0.3
	l0.5-0.3l0.4-0.4l0.4-0.4v-1.4l-0.3-0.4l-0.3-0.4l-0.3-0.3L60.6,25l-2.7-1.3l-2.7-1.3l-0.9-0.8l-0.9-0.9l-0.5-1.1l-0.5-1.1L52.3,17
	l-0.1-1.5l0.2-0.8l0.2-0.8L53,13l0.4-0.9l1-1l1-1l1.4-0.7l1.4-0.7l1.2-0.3l1.2-0.3l2.5-0.1L65.7,8l1.4,0.3l1.4,0.3l1.1,0.4l1.1,0.4
	l0.1,0.1l0.1,0.1l-0.7,2.9l-0.7,2.9l-0.2,0l-0.2,0l-1.7-0.6l-1.7-0.6L64,13.9l-1.7-0.1L61.5,14l-0.7,0.2l-0.6,0.5l-0.6,0.5l0,0.7
	l0,0.7l0.3,0.4l0.3,0.4l2.4,1.2l2.4,1.2l1,0.6l1,0.6l0.7,0.7l0.7,0.7l0.4,0.8l0.4,0.8l0.1,1.3l0.1,1.3l-0.2,0.9l-0.2,0.9l-0.2,0.7
	L68.6,30l-0.4,0.6l-0.4,0.6l-1,0.9l-1,0.9l-1.4,0.7L63,34.5l-1,0.3l-1,0.3l-3.1,0.1l-3.1,0.1L53.6,34.9L53.6,34.9L53.6,34.9z
	 M77.3,34.9l-1.1-0.2l-1.3-0.6l-1.3-0.6l-0.9-0.8l-0.9-0.8l-0.6-0.9l-0.6-0.9l-0.4-1.2l-0.4-1.2L69.6,26l-0.2-1.5l0.1-1.5l0.1-1.5
	l0.3-1.3l0.3-1.3l0.6-1.4l0.6-1.4l0.7-1.1l0.7-1.1l1.1-1.2l1.1-1.2l1.1-0.8l1.1-0.8l1-0.5l1-0.5l1.4-0.4l1.4-0.4l2.1-0.1L86.4,8
	l1.1,0.2l1.1,0.2L89.5,9l0.9,0.5l0.7,0.6l0.7,0.6l0.5,0.8l0.5,0.8l0.3,1l0.3,1l-0.1,1.5l-0.1,1.5l-0.3,0.9l-0.3,0.9L92.1,20
	l-0.5,0.8l-1,0.9l-1,0.9l-1.5,0.7L86.6,24l-1.5,0.4l-1.5,0.4L81.7,25l-1.9,0.2h-3V26l0.5,1l0.5,1l0.6,0.4l0.6,0.4l0.7,0.2l0.7,0.2
	l1.8,0l1.8,0l1.4-0.3l1.4-0.3l0.7-0.2l0.7-0.2l0.1,0.1l0.1,0.1l-0.8,3.1l-0.8,3.1l-0.3,0.1l-0.3,0.1l-1.5,0.3l-1.5,0.3l-2.4,0
	l-2.4,0L77.3,34.9L77.3,34.9L77.3,34.9z M82,19.8l1.4-0.3l0.9-0.4l0.9-0.4l0.6-0.6l0.6-0.6l0.2-0.7l0.2-0.7l-0.2-0.6l-0.2-0.6
	l-0.5-0.4L85.4,14L85,13.9l-0.4-0.1l-1.1,0.1l-1.1,0.1l-0.9,0.4l-0.9,0.4l-0.7,0.6l-0.7,0.6l-0.6,0.9l-0.6,0.9l-0.3,0.9l-0.3,0.9
	l-0.1,0.4L77,20.3l1.8-0.1l1.8-0.1L82,19.8z M0.1,34l0.1-0.5l3.9-16.2L8,1.1L8.1,1l0.1-0.1l1.8-0.3l1.8-0.3l3-0.2l3-0.2l2,0.2l2,0.2
	l1.5,0.4l1.5,0.4l1,0.5l1,0.5l1,0.7l1,0.7l0.6,0.8L30,5.1l0.4,0.9l0.4,0.9l0.2,1l0.2,1v0.9v0.9l-0.2,1.2l-0.2,1.2l-0.4,1.2l-0.4,1.2
	l-0.8,1.2l-0.8,1.2l-1.1,1l-1.1,1l-1.1,0.6L24.4,21l-1,0.4l-1,0.4l-1.2,0.3l-1.2,0.3l-1.6,0.3L16.8,23l-3.2,0.1l-3.2,0.1l-1.1,4.7
	l-1.1,4.7l-0.5,0.6l-0.5,0.6l-0.7,0.4l-0.7,0.4H0L0.1,34z M18.2,16.3l1-0.2l0.8-0.4l0.8-0.4l0.7-0.6l0.7-0.6l0.5-1l0.5-1l0-1.3
	l0-1.3l-0.4-0.8L22.5,8l-0.6-0.4l-0.6-0.4l-1-0.3l-1-0.3l-1.6-0.1l-1.6-0.1l-0.9,0.1l-0.9,0.1l-1.2,4.9l-1.2,4.9l0,0.1l0,0.1
	l2.6-0.1l2.6-0.1L18.2,16.3L18.2,16.3L18.2,16.3z"/>
</svg>
