<svg xmlns="http://www.w3.org/2000/svg" width="256" height="256" viewBox="0 0 256 256">
  <defs>
    <style>
      .cls-1 {
        fill: #684fa3;
      }

      .cls-1, .cls-2 {
        fill-rule: evenodd;
      }

      .cls-2 {
        fill: #a9c216;
      }
    </style>
  </defs>
  <g id="secure-payment">
    <path id="purple" class="cls-1" d="M305.143,234.823c-2.8-.884-7.588-5.841-8.448-8.754-0.465-1.575-.695-7.119-0.695-16.752v-14.4l1.4-1.4a4.277,4.277,0,0,1,6.337,0l1.4,1.4v28.7l1.4,1.4,1.4,1.4H485.2l1.4-1.4,1.4-1.4V185.249H425.354c-47.518,0-63.217-.168-65-0.695-3.139-.928-7.873-5.665-8.8-8.806a53.949,53.949,0,0,1-.695-10.15v-7.8H305.143v10.033c0,9.89-.019,10.053-1.4,11.437a4.277,4.277,0,0,1-6.337,0l-1.4-1.4v-22.4c0-15.919.2-23.085,0.695-24.758,0.927-3.141,5.661-7.878,8.8-8.806,1.664-.492,8.643-0.7,23.857-0.7h21.506V101.971c0-13.43.21-19.944,0.695-21.587,0.927-3.141,5.661-7.878,8.8-8.806a53.857,53.857,0,0,1,10.143-.7h7.791V56.122c0-18.36-.513-17.345,9.143-18.1A51.688,51.688,0,0,0,418.565,24c4.968-4.625,5.875-4.605,11.151.24,9.181,8.431,22.259,13.948,33.259,14.029,3.344,0.025,5.285.878,6.107,2.683,0.411,0.9.634,6.423,0.634,15.663V70.882h52.053l1.4,1.4a4.31,4.31,0,0,1,0,6.342l-1.4,1.4H469.924l-0.633,4.718a65.042,65.042,0,0,1-2.044,9.149l-1.409,4.432H542.86V90.585c0-7.462-.051-7.8-1.4-9.149a4.607,4.607,0,0,0-3.169-1.4,4.544,4.544,0,0,1-3.169-7.746c1.585-1.587,3.724-1.791,7.388-.708,3.139,0.928,7.873,5.665,8.8,8.806,0.521,1.763.692,13.808,0.683,48.034-0.013,44.72-.037,45.735-1.177,48.254a13.533,13.533,0,0,1-7.1,7.215c-2.848,1.347-2.928,1.351-24.714,1.357l-21.858.006-0.013,19.586c-0.011,18.465-.079,19.732-1.176,22.158a13.529,13.529,0,0,1-7.1,7.215L486,235.561l-89.43-.053c-63.47-.037-90.01-0.236-91.43-0.684h0ZM541.458,174.7l1.4-1.4V107.48H460.773l-3,3.7a48.235,48.235,0,0,1-14.384,11.678c-4.066,2.194-17.669,7.463-19.317,7.481-1.465.018-12.31-4.068-17.5-6.589a47.407,47.407,0,0,1-16.124-12.325l-3.247-3.95H360v65.813l1.4,1.4,1.4,1.4H540.055ZM350.858,139.5v-9.149h-42.91l-1.4,1.4c-1.352,1.352-1.4,1.687-1.4,9.149v7.746h45.715V139.5Zm80.675-21.272c10.322-3.856,17.339-9.3,22.7-17.606,5.447-8.432,6.336-13.445,6.336-35.735,0-18.976.179-18.024-3.4-18.024-6.5,0-22.22-6.489-29.029-11.984A21.249,21.249,0,0,0,424,32a21.217,21.217,0,0,0-4.14,2.884c-6.9,5.566-22.475,11.959-29.22,11.992-3.448.017-3.326-.788-3.087,20.354,0.216,19.208.232,19.42,1.746,23.954a42.806,42.806,0,0,0,16.561,21.827c4.025,2.678,15.5,7.521,17.977,7.588a44.4,44.4,0,0,0,7.694-2.367h0ZM380.756,93.9a65.182,65.182,0,0,1-2.044-9.149l-0.633-4.718h-7.637c-7.345,0-7.689.053-9.039,1.4s-1.4,1.688-1.4,9.149V98.33h22.164Z" transform="translate(-296)"/>
    <path id="green" class="cls-2" d="M407.01,165.547a4.3,4.3,0,0,1,0-6.342l1.4-1.4h30.845l1.4,1.4a4.3,4.3,0,0,1,0,6.342l-1.4,1.4H408.407Zm-27.326-18.3a4.3,4.3,0,0,1,0-6.342l1.4-1.4h30.845l1.4,1.4a4.3,4.3,0,0,1,0,6.342l-1.4,1.4H381.081Zm38.168-42.188c-5.669-2.968-12.291-9.376-15.226-14.736-3.866-7.057-4.565-10.37-4.848-22.983l-0.253-11.261,1.456-1.463a4.564,4.564,0,0,1,3.64-1.463,30.625,30.625,0,0,0,10.994-2.876,32.333,32.333,0,0,0,5.4-4.006c4.149-3.774,5.486-3.774,9.635,0a32.374,32.374,0,0,0,5.4,4.006,30.63,30.63,0,0,0,11,2.876,4.563,4.563,0,0,1,3.639,1.463l1.456,1.463-0.253,11.261c-0.217,9.653-.435,11.832-1.532,15.263a38.979,38.979,0,0,1-18.629,22.474c-2.553,1.32-5.242,2.393-5.977,2.383A23.719,23.719,0,0,1,417.852,105.06Zm9.631-9.046a30.223,30.223,0,0,0,12.553-17.436,46.369,46.369,0,0,0,.872-10.1c0-6.607-.025-6.742-1.281-6.754-2.322-.022-8.857-2.68-12.352-5.023l-3.435-2.3-3.563,2.4c-3.42,2.3-10.04,4.94-12.4,4.94-1.059,0-1.127.405-1.127,6.742,0,9.838,1.677,15.232,6.735,21.659,2.354,2.99,8.612,7.624,10.3,7.624a11.763,11.763,0,0,0,3.7-1.744h0Zm1.572,115.754a12.234,12.234,0,0,1-3.415-2.977c-2-2.63-2.173-7.719-.352-10.169,5.216-7.018,15.655-4.51,16.609,3.991C442.663,209.433,435.068,214.847,429.055,211.768Zm27.326,0a12.223,12.223,0,0,1-3.416-2.977c-2-2.63-2.173-7.719-.351-10.169,5.216-7.018,15.655-4.51,16.609,3.991C469.988,209.433,462.394,214.847,456.381,211.768Z" transform="translate(-296)"/>
  </g>
</svg>
